<?xml version="1.0" encoding="utf-8"?>
<!-- Generator: Adobe Illustrator 16.0.3, SVG Export Plug-In . SVG Version: 6.00 Build 0)  -->
<!DOCTYPE svg PUBLIC "-//W3C//DTD SVG 1.1//EN" "http://www.w3.org/Graphics/SVG/1.1/DTD/svg11.dtd">
<svg version="1.1" id="Ebene_1" xmlns="http://www.w3.org/2000/svg" xmlns:xlink="http://www.w3.org/1999/xlink" x="0px" y="0px"
	 width="18px" height="18px" viewBox="0 0 1000 1000" enable-background="new 0 0 1000 1000" xml:space="preserve">
<g>
	<path d="M926.619,938.826H800.875c-14.111,0-25.689-3.52-34.764-10.576c-9.074-7.055-15.613-15.82-19.631-26.309l-65.297-178.41
		H319.095l-65.278,178.41c-3.226,9.281-9.575,17.736-19.046,25.396c-9.471,7.658-21.046,11.49-34.744,11.49H73.678L417.032,63.839
		h166.233L926.619,938.826z M360.81,609.188h278.679L533.1,318.174c-4.85-12.903-10.195-28.12-16.027-45.664
		c-5.848-17.544-11.592-36.607-17.233-57.189c-5.642,20.581-11.18,39.748-16.613,57.482c-5.452,17.751-10.782,33.278-16.026,46.579
		L360.81,609.188z"/>
</g>
</svg>
