<?xml version="1.0" encoding="utf-8"?>
<!-- Generator: Adobe Illustrator 16.0.3, SVG Export Plug-In . SVG Version: 6.00 Build 0)  -->
<!DOCTYPE svg PUBLIC "-//W3C//DTD SVG 1.1//EN" "http://www.w3.org/Graphics/SVG/1.1/DTD/svg11.dtd">
<svg version="1.1" id="main" xmlns="http://www.w3.org/2000/svg" xmlns:xlink="http://www.w3.org/1999/xlink" x="0px" y="0px"
	 width="18px" height="18px" viewBox="0 0 1000 1000" enable-background="new 0 0 1000 1000" xml:space="preserve">
<g>
	<path d="M657.148,679.416c-20.914,0-39.604-4.914-56.051-14.764c-16.459-9.84-27.908-25.678-34.369-47.516
		c-18.148,22.145-37.369,37.988-57.664,47.516c-20.3,9.539-42.141,14.303-65.51,14.303c-19.376,0-36.216-3.379-50.516-10.148
		c-14.301-6.762-26.295-16.07-35.982-27.912c-9.688-11.836-16.92-25.836-21.683-41.98c-4.774-16.145-7.151-33.75-7.151-52.824
		c0-17.529,2.229-35.291,6.69-53.283c4.455-17.991,11.143-35.364,20.068-52.13c8.915-16.761,20.067-32.445,33.445-47.057
		c13.38-14.603,29.137-27.371,47.287-38.29c18.144-10.914,38.442-19.529,60.896-25.836c22.447-6.298,47.359-9.457,74.736-9.457
		c23.676,0,43.977,1.845,60.898,5.536c16.908,3.691,33.211,8.923,48.898,15.686l-44.285,171.153
		c-4.924,19.686-7.385,36.143-7.385,49.365c0,9.225,1.152,16.914,3.459,23.064c2.311,6.156,5.379,11.074,9.227,14.766
		c3.844,3.689,8.539,6.223,14.068,7.609c5.535,1.385,11.537,2.078,17.996,2.078c12.916,0,25.145-4.074,36.674-12.225
		c11.533-8.146,21.602-19.609,30.221-34.371c8.607-14.764,15.449-32.293,20.527-52.594c5.074-20.297,7.613-42.441,7.613-66.431
		c0-39.978-6.232-75.196-18.688-105.644c-12.455-30.449-29.832-55.893-52.129-76.352c-22.305-20.449-48.979-35.826-80.039-46.133
		c-31.07-10.3-65.049-15.454-101.953-15.454c-40.297,0-77.738,7.61-112.337,22.834c-34.601,15.224-64.586,36.063-89.959,62.511
		c-25.373,26.454-45.21,57.667-59.511,93.651c-14.302,35.982-21.453,74.735-21.453,116.253c0,50.442,7.843,94.808,23.529,133.097
		c15.686,38.287,37.209,70.281,64.585,95.955c27.37,25.686,59.583,44.979,96.65,57.898c37.058,12.916,77.116,19.377,120.176,19.377
		c23.68,0,45.824-1.314,66.434-3.922c20.6-2.617,39.516-6.156,56.744-10.613c17.217-4.461,32.902-9.531,47.057-15.223
		c14.139-5.695,26.752-11.768,37.826-18.221c6.148-3.381,11.375-5.078,15.684-5.078c8.916,0,15.225,4.926,18.916,14.766
		l15.684,41.059c-31.986,20.91-69.355,37.984-112.102,51.207c-42.748,13.221-91.504,19.836-146.242,19.836
		c-55.67,0-107.187-8.766-154.545-26.295c-47.367-17.531-88.346-42.674-122.947-75.426c-34.599-32.758-61.666-72.66-81.192-119.717
		c-19.535-47.057-29.295-99.951-29.295-158.7c0-32.904,4.224-64.888,12.687-95.956c8.456-31.06,20.529-60.204,36.214-87.421
		c15.686-27.22,34.6-52.204,56.744-74.968c22.143-22.756,46.745-42.284,73.812-58.589c27.062-16.298,56.354-28.984,87.884-38.06
		c31.521-9.068,64.508-13.61,98.958-13.61c43.668,0,85.574,7.309,125.709,21.913c40.137,14.613,75.66,35.523,106.57,62.742
		c30.91,27.218,55.588,60.434,74.043,99.647c18.451,39.214,27.676,83.429,27.676,132.633c0,32.914-4.842,63.746-14.529,92.498
		c-9.689,28.762-23.227,53.746-40.596,74.969c-17.383,21.219-37.832,37.906-61.359,50.053
		C710.436,673.344,684.834,679.416,657.148,679.416z M466.159,605.602c7.995,0,16.068-1.225,24.22-3.691
		c8.146-2.455,15.92-6.838,23.299-13.148c7.379-6.297,14.141-14.682,20.299-25.139c6.148-10.453,11.221-23.531,15.221-39.215
		l33.68-130.095c-9.848-1.846-19.998-2.769-30.447-2.769c-19.076,0-36.906,4.152-53.514,12.457
		c-16.611,8.303-30.99,19.533-43.136,33.677c-12.153,14.148-21.763,30.375-28.833,48.67c-7.08,18.302-10.611,37.296-10.611,56.974
		c0,19.689,4.224,34.986,12.686,45.906C437.478,600.145,449.855,605.602,466.159,605.602z"/>
</g>
</svg>
