<?xml version="1.0" encoding="utf-8"?>
<!-- Generator: Adobe Illustrator 16.0.3, SVG Export Plug-In . SVG Version: 6.00 Build 0)  -->
<!DOCTYPE svg PUBLIC "-//W3C//DTD SVG 1.1//EN" "http://www.w3.org/Graphics/SVG/1.1/DTD/svg11.dtd">
<svg version="1.1" id="Ebene_1" xmlns="http://www.w3.org/2000/svg" xmlns:xlink="http://www.w3.org/1999/xlink" x="0px" y="0px"
	 width="1000px" height="1000px" viewBox="0 0 1000 1000" enable-background="new 0 0 1000 1000" xml:space="preserve">
<polygon fill="#D1D7DF" stroke="#1A171B" stroke-width="30" stroke-miterlimit="10" points="623.666,187.5 185.5,187.5 
	185.5,937.828 810.5,937.828 810.5,374.333 "/>
<g>
	<path fill="#13325B" d="M414.435,836.395c-62.206,0-93.304-43.674-93.304-131.023c0-45.313,8.411-79.846,25.239-103.599
		c16.825-23.747,41.212-35.628,73.166-35.628c60.743,0,91.117,44.408,91.117,133.215c0,44.221-8.293,78.115-24.875,101.684
		S445.414,836.395,414.435,836.395z M416.986,610.064c-24.905,0-37.356,31.283-37.356,93.848c0,58.92,12.208,88.381,36.629,88.381
		c23.812,0,35.717-30.369,35.717-91.113C451.976,640.438,440.313,610.064,416.986,610.064z"/>
	<path fill="#13325B" d="M674.844,564.688V831.84H617.44V629.563c-3.158,2.797-6.896,5.439-11.207,7.928
		c-4.313,2.492-8.9,4.738-13.76,6.744c-4.859,2.004-9.902,3.709-15.125,5.104c-5.225,1.396-10.389,2.4-15.486,3.006V603.87
		c14.939-4.375,29.035-9.961,42.273-16.77c13.238-6.801,25.211-14.271,35.9-22.413H674.844L674.844,564.688z"/>
	<path fill="#13325B" d="M843.771,836.395c-62.201,0-93.303-43.674-93.303-131.023c0-45.313,8.41-79.846,25.238-103.599
		c16.826-23.747,41.211-35.628,73.166-35.628c60.742,0,91.115,44.408,91.115,133.215c0,44.221-8.291,78.115-24.875,101.684
		C898.533,824.611,874.752,836.395,843.771,836.395z M846.324,610.064c-24.908,0-37.357,31.283-37.357,93.848
		c0,58.92,12.209,88.381,36.625,88.381c23.813,0,35.719-30.369,35.719-91.113C881.313,640.438,869.65,610.064,846.324,610.064z"/>
</g>
<g>
	<path fill="#425A7B" d="M358.445,315.653c0,55.938-18.146,98.767-54.438,128.483c-36.292,29.718-88.831,44.576-157.604,44.576
		c-30.723,0-59.127-3.788-85.224-11.362v-88.276c22.561,12.236,47.843,18.354,75.845,18.354c60.076,0,90.118-31.852,90.118-95.561
		V63.639h131.302L358.445,315.653L358.445,315.653z"/>
</g>
<polygon fill="#AF9478" points="613.166,197.5 795,379.333 613.166,379.332 "/>
<polyline fill="none" stroke="#1A171B" stroke-width="30" stroke-miterlimit="10" points="614.5,196.5 614.5,377.5 810.5,377.5 "/>
</svg>
