<?xml version="1.0" encoding="utf-8"?>
<!DOCTYPE svg PUBLIC "-//W3C//DTD SVG 1.1//EN" "http://www.w3.org/Graphics/SVG/1.1/DTD/svg11.dtd">
<svg version="1.1" id="Ebene_1" xmlns="http://www.w3.org/2000/svg" x="0px" y="0px"
	 width="20px" height="20px" viewBox="0 0 1000 1000" enable-background="new 0 0 1000 1000" xml:space="preserve">
<polygon fill="#B4BDCB" points="623.666,187.5 185.5,187.5 185.5,937.828 810.5,937.828 810.5,374.333 "/>
<g>
	<path fill="#13325B" d="M414.435,836.395c-62.206,0-93.304-43.674-93.304-131.025c0-45.311,8.411-79.846,25.239-103.598
		c16.825-23.748,41.212-35.627,73.166-35.627c60.743,0,91.117,44.408,91.117,133.213c0,44.221-8.293,78.117-24.875,101.684
		C469.196,824.611,445.414,836.395,414.435,836.395z M416.986,610.064c-24.905,0-37.356,31.285-37.356,93.848
		c0,58.92,12.208,88.381,36.629,88.381c23.81,0,35.717-30.369,35.717-91.113C451.976,640.438,440.312,610.064,416.986,610.064z"/>
	<path fill="#13325B" d="M674.844,564.688V831.84h-57.404V629.563c-3.158,2.795-6.896,5.439-11.207,7.926
		c-4.313,2.492-8.9,4.74-13.758,6.744c-4.861,2.004-9.904,3.709-15.125,5.104c-5.225,1.396-10.389,2.4-15.488,3.006v-48.473
		c14.941-4.375,29.035-9.961,42.275-16.768c13.238-6.801,25.211-14.273,35.9-22.414H674.844L674.844,564.688z"/>
	<path fill="#13325B" d="M843.771,836.395c-62.201,0-93.301-43.674-93.301-131.025c0-45.311,8.41-79.846,25.238-103.598
		c16.826-23.748,41.211-35.627,73.166-35.627c60.742,0,91.115,44.408,91.115,133.213c0,44.221-8.291,78.117-24.875,101.684
		C898.533,824.611,874.752,836.395,843.771,836.395z M846.324,610.064c-24.908,0-37.357,31.285-37.357,93.848
		c0,58.92,12.209,88.381,36.625,88.381c23.813,0,35.719-30.369,35.719-91.113C881.313,640.438,869.65,610.064,846.324,610.064z"/>
</g>
<g>
	<path fill="#425A7B" d="M358.445,315.653c0,55.938-18.146,98.767-54.438,128.483c-36.292,29.717-88.831,44.576-157.604,44.576
		c-30.723,0-59.127-3.788-85.224-11.362v-88.278c22.561,12.236,47.843,18.354,75.845,18.354c60.076,0,90.118-31.852,90.118-95.561
		V63.639h131.302V315.653z"/>
</g>
<polygon fill="#AF9478" points="623.666,187.5 810.5,374.333 623.666,374.332 "/>
</svg>
