<?xml version="1.0" encoding="utf-8"?>
<!-- Generator: Adobe Illustrator 16.0.3, SVG Export Plug-In . SVG Version: 6.00 Build 0)  -->
<!DOCTYPE svg PUBLIC "-//W3C//DTD SVG 1.1//EN" "http://www.w3.org/Graphics/SVG/1.1/DTD/svg11.dtd">
<svg version="1.1" id="main" xmlns="http://www.w3.org/2000/svg" xmlns:xlink="http://www.w3.org/1999/xlink" x="0px" y="0px"
	 width="18px" height="18px" viewBox="0 0 1000 1000" enable-background="new 0 0 1000 1000" xml:space="preserve">
<circle fill="#ADD4A7" cx="500.164" cy="501.329" r="437.161"/>
<g>
	<path d="M635.564,629.471c4.947,0,9.225,1.912,12.828,5.736l35.777,38.818c-19.805,24.525-44.166,43.318-73.078,56.369
		c-28.916,13.049-63.625,19.578-104.131,19.578c-36.233,0-68.805-6.191-97.717-18.566c-28.917-12.375-53.617-29.588-74.09-51.645
		c-20.481-22.051-36.175-48.381-47.087-78.984c-10.917-30.6-16.371-64.018-16.371-100.252c0-36.675,6.076-70.26,18.227-100.753
		c12.152-30.49,29.249-56.76,51.305-78.816c22.051-22.051,48.437-39.208,79.154-51.475c30.716-12.263,64.641-18.396,101.769-18.396
		c36.227,0,67.896,5.797,95.02,17.383c27.113,11.592,50.346,26.951,69.699,46.074l-30.379,42.193
		c-1.805,2.7-4.107,5.064-6.918,7.088c-2.814,2.025-6.699,3.037-11.646,3.037c-5.18,0-10.461-2.025-15.863-6.074
		c-5.398-4.049-12.27-8.439-20.59-13.166c-8.326-4.726-18.848-9.113-31.559-13.164c-12.719-4.051-28.861-6.075-48.438-6.075
		c-22.954,0-44.049,3.997-63.288,11.983c-19.241,7.989-35.781,19.409-49.62,34.26c-13.838,14.852-24.641,32.911-32.403,54.175
		c-7.765,21.266-11.646,45.179-11.646,71.729c0,27.457,3.881,51.871,11.646,73.246c7.763,21.381,18.28,39.381,31.56,54.01
		c13.275,14.631,28.913,25.82,46.917,33.586c18.002,7.76,37.35,11.641,58.055,11.641c12.375,0,23.57-0.672,33.588-2.021
		c10.008-1.352,19.236-3.488,27.676-6.414c8.439-2.92,16.424-6.691,23.967-11.307c7.537-4.611,15.023-10.295,22.447-17.045
		c2.248-2.025,4.609-3.654,7.09-4.896C629.938,630.094,632.639,629.471,635.564,629.471z"/>
</g>
</svg>
