<?xml version="1.0" encoding="utf-8"?>
<!-- Generator: Adobe Illustrator 16.0.3, SVG Export Plug-In . SVG Version: 6.00 Build 0)  -->
<!DOCTYPE svg PUBLIC "-//W3C//DTD SVG 1.1//EN" "http://www.w3.org/Graphics/SVG/1.1/DTD/svg11.dtd">
<svg version="1.1" id="main" xmlns="http://www.w3.org/2000/svg" xmlns:xlink="http://www.w3.org/1999/xlink" x="0px" y="0px"
	 width="18px" height="18px" viewBox="0 0 1000 1000" enable-background="new 0 0 1000 1000" xml:space="preserve">
<path fill="#D1C78A" d="M767.5,313.501H490.257c-10.685-1.273-20.218-6.285-27.257-13.697l-70.414-90.97
	c-8.072-12.061-21.817-20.003-37.42-20.003h-82.598c-1.772-0.212-3.573-0.331-5.402-0.331H107.5c-24.853,0-45,20.147-45,45v125.001
	V379.5v389c0,24.852,20.147,45,45,45h82.623c1.765,0.209,3.557,0.33,5.378,0.33h335.666v-0.33H767.5c24.852,0,45-20.148,45-45
	V358.501C812.5,333.648,792.352,313.501,767.5,313.501z"/>
<path fill="#B3A13C" d="M823.928,775.23c-7.912,21.139-34.561,38.271-59.521,38.27l-667.217-0.068
	c-24.96-0.004-38.781-17.141-30.869-38.279l110.899-296.264c7.913-21.138,34.561-38.271,59.521-38.269l667.216,0.068
	c24.961,0.003,38.781,17.14,30.869,38.278L823.928,775.23z"/>
</svg>
