<?xml version="1.0" encoding="utf-8"?>
<!-- Generator: Adobe Illustrator 16.0.3, SVG Export Plug-In . SVG Version: 6.00 Build 0)  -->
<!DOCTYPE svg PUBLIC "-//W3C//DTD SVG 1.1//EN" "http://www.w3.org/Graphics/SVG/1.1/DTD/svg11.dtd">
<svg version="1.1" id="main" xmlns="http://www.w3.org/2000/svg" xmlns:xlink="http://www.w3.org/1999/xlink" x="0px" y="0px"
	 width="1000px" height="1000px" viewBox="0 0 1000 1000" enable-background="new 0 0 1000 1000" xml:space="preserve">
<path fill="#FBDA94" stroke="#CDBA92" stroke-width="8" stroke-miterlimit="10" d="M772.223,311.857H494.979
	c-10.684-1.273-20.217-6.285-27.256-13.697l-70.414-90.97c-8.069-12.062-21.813-20.003-37.42-20.003H277.29
	c-1.772-0.212-3.573-0.331-5.401-0.331H112.223c-24.854,0-45,20.147-45,45v125.001v20.999v389c0,24.854,20.146,45,45,45h82.623
	c1.765,0.209,3.557,0.329,5.377,0.329h335.666v-0.329h236.334c24.854,0,45-20.146,45-45V356.857
	C817.223,332.004,797.074,311.857,772.223,311.857z"/>
<path fill="#BFA993" stroke="#E1CCA7" stroke-miterlimit="10" d="M825.65,776.586c-7.912,21.139-34.563,38.271-59.521,38.271
	l-667.217-0.068c-24.96-0.004-38.781-17.141-30.869-38.277l110.899-296.265c7.913-21.138,34.562-38.271,59.521-38.271l667.217,0.067
	c24.961,0.004,38.781,17.141,30.869,38.278L825.65,776.586z"/>
</svg>
