<?xml version="1.0" encoding="utf-8"?>
<!-- Generator: Adobe Illustrator 16.0.3, SVG Export Plug-In . SVG Version: 6.00 Build 0)  -->
<!DOCTYPE svg PUBLIC "-//W3C//DTD SVG 1.1//EN" "http://www.w3.org/Graphics/SVG/1.1/DTD/svg11.dtd">
<svg version="1.1" id="main" xmlns="http://www.w3.org/2000/svg" xmlns:xlink="http://www.w3.org/1999/xlink" x="0px" y="0px"
	 width="18px" height="18px" viewBox="0 0 1000 1000" enable-background="new 0 0 1000 1000" xml:space="preserve">
<path fill="#D6BC95" d="M750,142.5c0,24.853-20.148,45-45,45H295c-24.853,0-45-20.147-45-45v-35c0-24.853,20.147-45,45-45h410
	c24.852,0,45,20.147,45,45V142.5z"/>
<path fill="#7185CE" d="M812.166,500L812.166,500h0.443V357.17c0-24.853-20.146-45-45-45h-34.89
	c-45.209-4.027-57.01-39.139-57.727-63.67H533.777h-67.175H325.386c-0.715,24.532-12.515,59.643-57.724,63.67h-34.889
	c-24.853,0-45,20.147-45,45v74.33V500l0,0h-0.082v50.987v137.246v109.252v79.891c0,33.939,31.657,61.453,70.711,61.453h208.201
	h67.177h208.203c39.053,0,70.709-27.514,70.709-61.453v-79.891V688.232V550.986V500H812.166z"/>
<g>
	<path fill="#FFFFFF" d="M419.422,531.416c0,15.932-1.707,29.779-5.121,41.535c-3.414,11.76-8.136,21.477-14.161,29.146
		c-6.027,7.67-13.149,13.384-21.368,17.131c-8.22,3.75-17.092,5.628-26.615,5.628c-9.527,0-18.355-1.878-26.49-5.628
		c-8.135-3.747-15.194-9.461-21.178-17.131c-5.986-7.67-10.665-17.387-14.035-29.146c-3.373-11.756-5.058-25.604-5.058-41.535
		c0-16.014,1.685-29.881,5.058-41.598c3.371-11.717,8.049-21.41,14.035-29.082c5.983-7.669,13.043-13.38,21.178-17.132
		c8.134-3.75,16.963-5.628,26.49-5.628c9.523,0,18.396,1.878,26.615,5.628c8.219,3.752,15.341,9.463,21.368,17.132
		c6.025,7.671,10.747,17.365,14.161,29.082S419.422,515.402,419.422,531.416z M387.18,531.416c0-13.232-0.97-24.189-2.908-32.873
		c-1.939-8.681-4.531-15.594-7.775-20.737c-3.246-5.141-6.977-8.745-11.19-10.811c-4.216-2.064-8.599-3.098-13.149-3.098
		c-4.469,0-8.788,1.033-12.96,3.098c-4.172,2.065-7.86,5.67-11.063,10.811c-3.205,5.144-5.753,12.057-7.649,20.737
		c-1.896,8.684-2.846,19.641-2.846,32.873c0,13.234,0.949,24.193,2.846,32.875c1.896,8.684,4.444,15.596,7.649,20.736
		c3.203,5.143,6.892,8.746,11.063,10.811c4.172,2.066,8.491,3.1,12.96,3.1c4.551,0,8.934-1.032,13.149-3.1
		c4.214-2.063,7.944-5.668,11.19-10.811c3.244-5.142,5.835-12.054,7.775-20.736C386.21,555.609,387.18,544.65,387.18,531.416z"/>
	<path fill="#FFFFFF" d="M459.753,599.441h37.048V492.853c0-4.129,0.125-8.472,0.378-13.023L470.88,501.83
		c-1.098,0.928-2.213,1.561-3.351,1.896c-1.139,0.338-2.256,0.507-3.352,0.507c-1.688,0-3.225-0.358-4.615-1.074
		c-1.392-0.717-2.425-1.538-3.098-2.467l-9.863-13.528l55.763-47.416h25.668v159.694h32.873v23.391H459.753V599.441z"/>
	<path fill="#FFFFFF" d="M712.756,531.416c0,15.932-1.707,29.779-5.121,41.535c-3.412,11.76-8.135,21.477-14.16,29.146
		c-6.028,7.67-13.147,13.384-21.368,17.131c-8.218,3.75-17.091,5.628-26.615,5.628c-9.525,0-18.357-1.878-26.488-5.628
		c-8.137-3.747-15.195-9.461-21.18-17.131c-5.986-7.67-10.664-17.387-14.035-29.146c-3.371-11.756-5.057-25.604-5.057-41.535
		c0-16.014,1.686-29.881,5.057-41.598s8.049-21.41,14.035-29.082c5.983-7.669,13.043-13.38,21.18-17.132
		c8.131-3.75,16.963-5.628,26.488-5.628c9.524,0,18.397,1.878,26.615,5.628c8.221,3.752,15.34,9.463,21.368,17.132
		c6.025,7.671,10.748,17.365,14.16,29.082C711.049,501.535,712.756,515.402,712.756,531.416z M680.516,531.416
		c0-13.232-0.971-24.189-2.907-32.873c-1.941-8.681-4.533-15.594-7.777-20.737c-3.244-5.141-6.975-8.745-11.191-10.811
		c-4.215-2.064-8.596-3.098-13.147-3.098c-4.469,0-8.787,1.033-12.961,3.098c-4.17,2.065-7.859,5.67-11.063,10.811
		c-3.205,5.144-5.754,12.057-7.649,20.737c-1.896,8.684-2.845,19.641-2.845,32.873c0,13.234,0.949,24.193,2.845,32.875
		c1.896,8.684,4.444,15.596,7.649,20.736c3.203,5.143,6.894,8.746,11.063,10.811c4.174,2.066,8.492,3.1,12.961,3.1
		c4.553,0,8.934-1.032,13.147-3.1c4.218-2.063,7.947-5.668,11.191-10.811c3.244-5.142,5.836-12.054,7.777-20.736
		C679.545,555.609,680.516,544.65,680.516,531.416z"/>
</g>
</svg>
