<?xml version="1.0" encoding="utf-8"?>
<!-- Generator: Adobe Illustrator 16.0.3, SVG Export Plug-In . SVG Version: 6.00 Build 0)  -->
<!DOCTYPE svg PUBLIC "-//W3C//DTD SVG 1.1//EN" "http://www.w3.org/Graphics/SVG/1.1/DTD/svg11.dtd">
<svg version="1.1" id="Ebene_1" xmlns="http://www.w3.org/2000/svg" xmlns:xlink="http://www.w3.org/1999/xlink" x="0px" y="0px"
	 width="1000px" height="1000px" viewBox="0 0 1000 1000" enable-background="new 0 0 1000 1000" xml:space="preserve">
<g>
	<path fill="#1A171B" d="M640.148,658.279c-18.705,0-35.373-4.422-50.007-13.076c-14.729-8.75-25.002-22.787-30.721-42.113
		c-16.184,19.615-33.432,33.65-51.553,42.113c-18.123,8.365-37.604,12.596-58.485,12.596c-17.295,0-32.315-2.979-45.105-8.938
		c-12.791-5.961-23.451-14.23-32.172-24.711c-8.63-10.48-15.069-22.886-19.336-37.209c-4.264-14.326-6.347-29.902-6.347-46.824
		c0-15.576,1.938-31.248,5.911-47.208c3.974-15.961,9.98-31.344,17.926-46.2c7.997-14.854,17.93-28.748,29.896-41.68
		c11.968-12.98,26.019-24.229,42.203-33.941c16.23-9.663,34.354-17.306,54.41-22.883c20.014-5.577,42.303-8.365,66.723-8.365
		c21.223,0,39.344,1.634,54.463,4.902c15.02,3.27,29.65,7.885,43.604,13.846l-39.534,151.722
		c-4.361,17.402-6.593,32.021-6.593,43.65c0,8.271,1.064,15.002,3.104,20.482c2.033,5.479,4.846,9.807,8.235,13.071
		c3.394,3.271,7.654,5.48,12.599,6.73c4.94,1.25,10.271,1.828,15.992,1.828c11.627,0,22.479-3.562,32.752-10.771
		c10.369-7.213,19.381-17.401,27.037-30.479c7.651-13.076,13.762-28.654,18.313-46.633c4.553-17.979,6.783-37.596,6.783-58.845
		c0-35.382-5.523-66.631-16.668-93.6c-11.146-26.97-26.65-49.517-46.517-67.641c-19.967-18.124-43.803-31.728-71.52-40.862
		c-27.715-9.134-58.047-13.75-91.092-13.75c-35.952,0-69.385,6.779-100.296,20.288c-30.914,13.46-57.66,31.921-80.335,55.382
		c-22.678,23.458-40.411,51.054-53.155,82.975c-12.741,31.874-19.139,66.246-19.139,102.976c0,44.708,6.978,84.034,21.029,117.973
		c13.955,33.939,33.19,62.303,57.66,84.996c24.419,22.785,53.201,39.9,86.295,51.342c33.096,11.442,68.854,17.115,107.321,17.115
		c21.127,0,40.992-1.154,59.311-3.461c18.408-2.31,35.367-5.479,50.683-9.424c15.406-3.941,29.459-8.365,42.057-13.461
		c12.601-5,23.938-10.388,33.818-16.152c5.428-2.979,10.178-4.52,13.955-4.52c7.949,0,13.664,4.424,16.961,13.073l13.953,36.441
		c-28.588,18.557-61.924,33.649-100.104,45.383c-38.182,11.729-81.688,17.594-130.631,17.594c-49.712,0-95.742-7.789-137.994-23.36
		c-42.348-15.48-78.882-37.787-109.792-66.824c-30.914-29.037-55.092-64.42-72.536-106.051
		c-17.441-41.729-26.165-88.556-26.165-140.665c0-29.135,3.781-57.497,11.34-84.997c7.51-27.499,18.363-53.363,32.318-77.497
		c14.051-24.084,30.911-46.246,50.681-66.389c19.769-20.144,41.767-37.451,65.945-51.92c24.179-14.471,50.344-25.72,78.444-33.7
		c28.201-8.077,57.66-12.115,88.378-12.115c39.055,0,76.461,6.538,112.313,19.422c35.855,12.98,67.546,31.487,95.162,55.621
		c27.617,24.086,49.615,53.556,66.188,88.313c16.473,34.709,24.711,73.937,24.711,117.493c0,29.184-4.361,56.487-12.984,81.918
		c-8.723,25.574-20.738,47.689-36.241,66.438c-15.604,18.846-33.82,33.65-54.853,44.422
		C687.727,652.895,664.859,658.279,640.148,658.279z M469.593,592.803c7.122,0,14.343-1.059,21.61-3.27
		c7.268-2.115,14.244-6.062,20.834-11.635c6.588-5.576,12.598-12.98,18.121-22.308c5.521-9.229,9.979-20.77,13.563-34.711
		l30.142-115.282c-8.818-1.634-17.931-2.402-27.229-2.402c-17.057,0-32.951,3.653-47.774,11.009
		c-14.825,7.354-27.718,17.306-38.569,29.854c-10.854,12.499-19.381,26.925-25.729,43.123c-6.348,16.201-9.447,33.027-9.447,50.433
		c0,17.5,3.776,31.057,11.338,40.67C443.959,587.996,455.008,592.803,469.593,592.803z"/>
</g>
</svg>
