<?xml version="1.0" encoding="utf-8"?>
<!-- Generator: Adobe Illustrator 16.0.3, SVG Export Plug-In . SVG Version: 6.00 Build 0)  -->
<!DOCTYPE svg PUBLIC "-//W3C//DTD SVG 1.1//EN" "http://www.w3.org/Graphics/SVG/1.1/DTD/svg11.dtd">
<svg version="1.1" id="Ebene_1" xmlns="http://www.w3.org/2000/svg" xmlns:xlink="http://www.w3.org/1999/xlink" x="0px" y="0px"
	 width="1000px" height="1000px" viewBox="0 0 1000 1000" enable-background="new 0 0 1000 1000" xml:space="preserve">
<polygon fill="#FFFFFF" stroke="#1A171B" stroke-width="40" stroke-miterlimit="10" points="623.666,187.5 185.5,187.5 
	185.5,937.828 810.5,937.828 810.5,374.333 "/>
<g>
	<path fill="#1A171B" d="M323.944,785.463c-50.545,0-75.814-35.487-75.814-106.463c0-36.818,6.834-64.878,20.508-84.18
		c13.671-19.295,33.487-28.949,59.451-28.949c49.357,0,74.038,36.084,74.038,108.244c0,35.932-6.739,63.473-20.213,82.623
		C368.441,775.889,349.117,785.463,323.944,785.463z M326.018,601.559c-20.237,0-30.354,25.419-30.354,76.256
		c0,47.875,9.919,71.814,29.763,71.814c19.348,0,29.021-24.677,29.021-74.035C354.448,626.238,344.971,601.559,326.018,601.559z"/>
	<path fill="#1A171B" d="M535.54,564.688v217.075h-46.644V617.401c-2.566,2.273-5.604,4.42-9.106,6.441
		c-3.504,2.025-7.231,3.851-11.181,5.48c-3.948,1.628-8.045,3.014-12.29,4.146c-4.245,1.135-8.441,1.95-12.583,2.442v-39.387
		c12.139-3.555,23.593-8.094,34.35-13.626c10.757-5.526,20.485-11.597,29.171-18.212H535.54L535.54,564.688z"/>
	<path fill="#1A171B" d="M672.802,785.463c-50.542,0-75.813-35.487-75.813-106.463c0-36.818,6.833-64.878,20.507-84.18
		c13.672-19.295,33.486-28.949,59.45-28.949c49.357,0,74.036,36.084,74.036,108.244c0,35.932-6.736,63.473-20.212,82.623
		C717.299,775.889,697.976,785.463,672.802,785.463z M674.876,601.559c-20.239,0-30.355,25.419-30.355,76.256
		c0,47.875,9.921,71.814,29.76,71.814c19.351,0,29.024-24.677,29.024-74.035C703.306,626.238,693.83,601.559,674.876,601.559z"/>
</g>
<g>
	<path fill="#1A171B" d="M358.445,315.653c0,55.938-18.146,98.767-54.438,128.483c-36.292,29.718-88.831,44.576-157.604,44.576
		c-30.723,0-59.127-3.788-85.224-11.362v-88.276c22.561,12.236,47.843,18.354,75.845,18.354c60.076,0,90.118-31.852,90.118-95.561
		V63.639h131.302L358.445,315.653L358.445,315.653z"/>
</g>
<polyline fill="none" stroke="#1A171B" stroke-width="40" stroke-miterlimit="10" points="610.5,193.5 610.5,374.5 806.5,374.5 "/>
</svg>
