<?xml version="1.0" encoding="utf-8"?>
<!-- Generator: Adobe Illustrator 16.0.3, SVG Export Plug-In . SVG Version: 6.00 Build 0)  -->
<!DOCTYPE svg PUBLIC "-//W3C//DTD SVG 1.1//EN" "http://www.w3.org/Graphics/SVG/1.1/DTD/svg11.dtd">
<svg version="1.1" id="Ebene_1" xmlns="http://www.w3.org/2000/svg" xmlns:xlink="http://www.w3.org/1999/xlink" x="0px" y="0px"
	 width="1000px" height="1000px" viewBox="0 0 1000 1000" enable-background="new 0 0 1000 1000" xml:space="preserve">
<path fill="none" stroke="#1A171B" stroke-width="40" stroke-miterlimit="10" d="M499.971,63.77
	c241.119,0,436.613,195.467,436.613,436.586c0,241.089-195.494,436.583-436.613,436.583c-241.118,0-436.559-195.494-436.559-436.585
	C63.412,259.237,258.853,63.77,499.971,63.77z"/>
<g>
	<path fill="#1A171B" d="M635.213,628.311c4.986,0,9.213,1.951,12.789,5.742l35.76,38.795
		c-19.723,24.494-44.104,43.24-72.932,56.244c-28.934,13.059-63.611,19.615-104.029,19.615c-36.197,0-68.708-6.178-97.642-18.586
		c-28.824-12.354-53.532-29.529-73.96-51.527c-20.426-22.053-36.141-48.332-47.031-78.895c-10.89-30.561-16.31-63.938-16.31-100.158
		c0-36.628,6.069-70.167,18.206-100.618c12.138-30.451,29.15-56.677,51.203-78.702c22.055-22.025,48.389-39.173,79.056-51.421
		c30.669-12.246,64.589-18.367,101.646-18.367c36.197,0,67.84,5.798,94.932,17.366c27.094,11.568,50.281,26.9,69.57,46.001
		l-30.34,42.155c-1.844,2.681-4.117,5.038-6.936,7.07c-2.82,2.033-6.611,3.034-11.6,3.034c-5.199,0-10.398-2.032-15.818-6.068
		c-5.42-4.036-12.246-8.423-20.593-13.139c-8.345-4.742-18.854-9.103-31.532-13.168c-12.682-4.036-28.826-6.069-48.332-6.069
		c-22.976,0-43.997,4.01-63.233,11.977c-19.235,7.992-35.708,19.397-49.578,34.216c-13.816,14.845-24.599,32.863-32.347,54.102
		c-7.749,21.24-11.649,45.137-11.649,71.658c0,27.416,3.9,51.8,11.649,73.146c7.749,21.352,18.259,39.34,31.479,53.967
		c13.33,14.576,28.935,25.738,46.923,33.484c17.988,7.805,37.278,11.652,57.979,11.652c12.354,0,23.516-0.705,33.486-2.008
		c10.078-1.354,19.289-3.467,27.631-6.393c8.453-2.926,16.475-6.719,23.949-11.326c7.588-4.604,15.063-10.24,22.436-17.012
		c2.273-2.006,4.658-3.631,7.152-4.936C629.578,628.961,632.289,628.311,635.213,628.311z"/>
</g>
</svg>
