<?xml version="1.0" encoding="utf-8"?>
<!-- Generator: Adobe Illustrator 16.0.3, SVG Export Plug-In . SVG Version: 6.00 Build 0)  -->
<!DOCTYPE svg PUBLIC "-//W3C//DTD SVG 1.1//EN" "http://www.w3.org/Graphics/SVG/1.1/DTD/svg11.dtd">
<svg version="1.1" id="Ebene_1" xmlns="http://www.w3.org/2000/svg" xmlns:xlink="http://www.w3.org/1999/xlink" x="0px" y="0px"
	 width="1000px" height="1000px" viewBox="0 0 1000 1000" enable-background="new 0 0 1000 1000" xml:space="preserve">
<path fill="none" stroke="#1A171B" stroke-width="40" stroke-miterlimit="10" d="M312.098,187.579
	c-24.146,89.885-156.075,142.291-156.075,288.307v305.517c0,86.194,69.59,155.657,156.075,155.657h376.205
	c86.42,0,156.072-69.463,156.072-155.657V475.886c0-142.261-130.49-193.02-156.072-288.307H312.098z"/>
<path fill="none" stroke="#1A171B" stroke-width="40" stroke-linejoin="round" d="M787.434,142.762c0,24.854-20.146,45-45,45
	H264.137c-24.853,0-45-20.146-45-45v-35.595c0-24.853,20.147-45,45-45h478.293c24.854,0,45,20.147,45,45L787.434,142.762
	L787.434,142.762z"/>
<g>
	<path fill="#1A171B" d="M316.23,715.303c-54.267,0-81.396-38.1-81.396-114.301c0-39.527,7.337-69.652,22.017-90.373
		c14.677-20.717,35.951-31.078,63.826-31.078c52.989,0,79.484,38.738,79.484,116.207c0,38.576-7.233,68.146-21.699,88.703
		C364,705.023,343.255,715.303,316.23,715.303z M318.456,517.863c-21.726,0-32.588,27.291-32.588,81.869
		c0,51.396,10.65,77.098,31.953,77.098c20.771,0,31.157-26.492,31.157-79.482C348.979,544.359,338.804,517.863,318.456,517.863z"/>
	<path fill="#1A171B" d="M543.396,478.28v233.048H493.32V534.873c-2.756,2.438-6.019,4.744-9.776,6.914
		c-3.763,2.174-7.765,4.135-12.002,5.883c-4.24,1.748-8.639,3.234-13.194,4.451c-4.558,1.219-9.062,2.094-13.512,2.623v-42.285
		c13.035-3.816,25.328-8.689,36.88-14.626c11.549-5.934,21.991-12.452,31.317-19.553H543.396L543.396,478.28z"/>
	<path fill="#1A171B" d="M690.76,715.303c-54.262,0-81.391-38.1-81.391-114.301c0-39.527,7.336-69.652,22.016-90.373
		c14.678-20.717,35.951-31.078,63.826-31.078c52.988,0,79.484,38.738,79.484,116.207c0,38.576-7.232,68.146-21.699,88.703
		C738.529,705.023,717.785,715.303,690.76,715.303z M692.986,517.863c-21.729,0-32.59,27.291-32.59,81.869
		c0,51.396,10.648,77.098,31.949,77.098c20.771,0,31.158-26.492,31.158-79.482C723.508,544.359,713.334,517.863,692.986,517.863z"/>
</g>
</svg>
